<?xml version="1.0" standalone="no"?>
<!DOCTYPE svg PUBLIC "-//W3C//DTD SVG 20010904//EN"
 "http://www.w3.org/TR/2001/REC-SVG-20010904/DTD/svg10.dtd">
<svg version="1.0" xmlns="http://www.w3.org/2000/svg"
 width="360.000000pt" height="360.000000pt" viewBox="0 0 360.000000 360.000000"
 preserveAspectRatio="xMidYMid meet">
<metadata>
Created by potrace 1.14, written by Peter Selinger 2001-2017
</metadata>
<g transform="translate(0.000000,360.000000) scale(0.100000,-0.100000)"
fill="#000000" stroke="none">
<path d="M1580 3540 c-111 -14 -345 -73 -364 -91 -6 -5 -15 -9 -22 -9 -7 0
-34 -10 -61 -22 -26 -12 -50 -22 -53 -23 -3 -1 -31 -13 -62 -28 -31 -15 -58
-27 -60 -27 -2 0 -4 12 -4 26 -3 44 -41 74 -94 74 -63 0 -77 -18 -134 -167
-51 -131 -62 -178 -52 -217 12 -48 48 -56 241 -56 l177 0 29 29 c46 47 39 118
-16 149 -18 9 -13 14 50 42 115 53 203 81 340 110 111 23 154 27 300 28 143 0
190 -3 295 -24 321 -64 579 -202 810 -434 194 -194 308 -379 387 -625 62 -194
72 -267 69 -495 -2 -107 -8 -217 -15 -245 -6 -27 -16 -72 -22 -100 -16 -77
-67 -221 -109 -310 -43 -89 -152 -256 -212 -324 -46 -53 -55 -81 -38 -122 23
-55 77 -74 135 -47 23 10 102 109 184 231 35 51 129 237 150 297 7 19 17 44
22 55 15 32 48 152 71 260 19 87 22 130 22 325 0 195 -3 238 -22 325 -44 200
-77 298 -158 459 -139 277 -323 491 -564 658 -142 98 -409 216 -580 256 -162
39 -204 44 -385 47 -104 2 -219 0 -255 -5z"/>
<path d="M476 2947 c-101 -106 -245 -345 -310 -514 -72 -189 -106 -356 -113
-563 -8 -233 10 -371 77 -605 92 -321 379 -711 666 -906 153 -104 330 -190
469 -229 238 -66 298 -75 545 -75 156 0 252 5 285 13 28 7 59 14 70 16 102 19
259 74 379 132 38 19 71 34 73 34 1 0 3 -18 3 -40 0 -73 64 -110 135 -78 30
14 53 54 102 183 65 169 67 211 10 245 -28 18 -51 20 -203 20 l-172 0 -31 -29
c-25 -23 -31 -37 -31 -70 0 -28 7 -48 20 -61 11 -11 20 -22 20 -25 0 -20 -212
-93 -365 -125 -120 -26 -145 -28 -330 -26 -118 2 -221 8 -250 15 -27 7 -70 17
-95 23 -178 41 -378 134 -550 257 -108 77 -306 283 -383 399 -105 157 -185
340 -216 495 -34 165 -39 212 -39 372 1 207 22 336 85 515 59 167 159 342 272
475 44 51 51 65 51 103 0 57 -35 92 -93 92 -35 0 -46 -6 -81 -43z"/>
<path d="M1702 2554 c-119 -59 -156 -191 -99 -350 66 -183 175 -264 272 -204
96 59 180 266 156 382 -13 57 -41 116 -68 140 -66 60 -177 74 -261 32z"/>
<path d="M925 2495 c-112 -40 -144 -165 -80 -311 29 -65 88 -131 124 -139 71
-15 145 60 184 186 23 74 21 125 -6 179 -18 35 -34 51 -77 73 -60 30 -87 33
-145 12z"/>
<path d="M2559 2500 c-70 -21 -129 -103 -129 -178 0 -47 28 -140 55 -182 65
-102 136 -122 201 -59 74 71 118 211 94 299 -25 93 -127 149 -221 120z"/>
<path d="M730 1960 c-68 -21 -129 -45 -135 -54 -7 -8 -17 -68 -24 -133 -6 -65
-16 -157 -22 -205 -17 -137 -22 -132 226 -198 17 -4 65 -17 107 -29 93 -25
113 -26 199 -5 l66 16 12 104 c6 57 16 152 22 212 7 59 16 116 22 127 20 41
72 85 119 101 26 8 48 17 48 19 0 2 -59 22 -131 46 -154 50 -164 49 -214 -38
-16 -29 -32 -52 -35 -52 -3 0 -23 28 -45 62 -30 47 -46 62 -65 64 -14 1 -81
-16 -150 -37z"/>
<path d="M2346 1957 l-119 -40 57 -23 c95 -39 119 -78 135 -226 6 -60 16 -154
22 -211 l11 -103 67 -17 c85 -22 105 -21 199 4 42 12 122 34 177 49 55 14 110
32 123 39 36 19 44 54 33 140 -5 42 -15 130 -22 196 -6 66 -15 127 -20 137 -5
9 -46 28 -96 43 -49 15 -111 34 -139 42 -29 9 -59 13 -68 10 -9 -4 -33 -33
-54 -66 -20 -33 -40 -60 -43 -61 -4 0 -12 13 -19 29 -19 46 -75 101 -101 100
-13 -1 -77 -19 -143 -42z"/>
<path d="M1495 1865 c-183 -56 -191 -60 -209 -87 -19 -30 -70 -526 -57 -560
19 -50 31 -55 403 -157 82 -23 159 -41 174 -41 14 0 64 11 112 24 458 129 444
124 463 175 6 15 4 76 -6 170 -9 80 -20 193 -26 251 -17 164 -9 157 -247 230
-171 53 -172 53 -245 -58 -26 -39 -51 -72 -55 -72 -4 0 -25 29 -46 65 -40 68
-77 105 -105 104 -9 0 -79 -20 -156 -44z"/>
</g>
</svg>
